<svg width="77" height="77" viewBox="0 0 77 77" xmlns="http://www.w3.org/2000/svg"><path d="M33.61 1v22.826V1zm9.78 13.043l-9.78 9.783-9.784-9.783m-3.26 57.064c0 2.702-2.19 4.89-4.892 4.89-2.702 0-4.89-2.188-4.89-4.89 0-2.7 2.188-4.89 4.89-4.89 2.702 0 4.89 2.19 4.89 4.89zm35.87 0c0 2.702-2.19 4.89-4.893 4.89-2.7 0-4.89-2.188-4.89-4.89 0-2.7 2.19-4.89 4.89-4.89 2.702 0 4.892 2.19 4.892 4.89zM76 10.783H64.587L51.543 66.217h-35.87m37.405-6.52H10.783L1 30.347h58.696l-6.618 29.35z" stroke="#fff" stroke-width="2" stroke-linecap="round" stroke-linejoin="round" fill="none" fill-rule="evenodd"/></svg>