<svg xmlns="http://www.w3.org/2000/svg" style="display: none;">
    <symbol id="p-1" viewBox="0 0 73 75">
      <title>p-1 icon</title>
      <g id="p-1" transform="translate(1 1)" stroke-width="2" fill="none"><circle cx="35.5" cy="28.5" r="28.5"/><path d="M70.567 25.318S71 26.054 71 28.5c0 5.048-1.054 9.85-2.953 14.2C62.57 55.236 50.057 64 35.5 64 15.894 64 0 48.106 0 28.5c0-2.272.42-3.182.42-3.182M.5 28h7m56 0h7"/><path d="M8 72.992h56C64 70.235 61.77 68 59.006 68H12.994C10.236 68 8 70.23 8 72.992zM29 63.454v4.53m14-4.53v4.53"/></g>
    </symbol>
    <symbol id="p-2" viewBox="0 0 65 75">
      <title>p-2 icon</title>
      <path d="M47.42 73.474v-16.99c9.158 0 16.58-7.307 16.58-16.32v-8.158C64 14.883 49.898 1 32.5 1 15.104 1 1 14.883 1 32.006v8.16c0 9.01 7.422 16.318 16.58 16.318v16.99h29.84zm-19.894-16.99v16.32-16.32zm9.948 0v16.32-16.32zm19.894-16.32c0 5.41-4.454 9.793-9.947 9.793-5.49 0-9.94-4.383-9.94-9.792 0-5.408 4.452-9.79 9.946-9.79s9.948 4.382 9.948 9.79zm-49.736 0c0 5.41 4.454 9.793 9.947 9.793 5.49 0 9.94-4.383 9.94-9.792 0-5.408-4.453-9.79-9.946-9.79-5.494 0-9.948 4.382-9.948 9.79zm6.436-26.11c0 8.926-5.427 13.056-11.41 13.056H1.363m49.57-13.055c0 8.925 5.426 13.055 11.41 13.055l1.243.05M30.842 49.958l1.658-3.264 1.658 3.264h-3.316z" stroke-width="2" stroke-linecap="round" stroke-linejoin="round" fill="none"/>
    </symbol>
    <symbol id="p-3" viewBox="0 0 78 72">
      <title>p-3 icon</title>
      <path d="M12.004 65.152c-14.672-14.675-14.672-38.47 0-53.147 14.673-14.673 38.46-14.673 53.134 0 14.67 14.678 14.67 38.472 0 53.147-7.018 7.018-18.395 7.018-25.413 0l-13.86-13.865c-1.276-1.276-3.346-1.276-4.622 0-1.275 1.276-1.275 3.345 0 4.62 2.552 2.555 2.552 6.69 0 9.245-2.55 2.55-6.687 2.55-9.24 0zm43.89-39.28c-1.912 1.91-5.015 1.91-6.928 0-1.915-1.915-1.915-5.02 0-6.934 1.913-1.915 5.016-1.915 6.93 0 1.912 1.913 1.912 5.02 0 6.933zM59.13 40.89c-1.276-1.278-1.276-3.346 0-4.62 1.276-1.28 3.344-1.28 4.62 0 1.277 1.274 1.277 3.342 0 4.62-1.276 1.274-3.344 1.274-4.62 0zM47.81 59.37c-2.55-2.55-2.55-6.69 0-9.24s6.69-2.55 9.24 0c2.552 2.55 2.552 6.69 0 9.24-2.55 2.552-6.69 2.552-9.24 0zm-11.552-43.9c1.915 1.914 1.916 5.02 0 6.932-1.91 1.913-5.015 1.913-6.928 0-1.917-1.913-1.917-5.018 0-6.93 1.914-1.916 5.014-1.916 6.927 0z" stroke-width="2" stroke-linecap="round" stroke-linejoin="round" fill="none"/>
    </symbol>
    <symbol id="p-4" viewBox="0 0 75 75">
      <title>p-4 icon</title>
      <path d="M21.63 35.913V16.87C21.63 8.105 28.735 1 37.5 1c8.763 0 15.87 7.105 15.87 15.87v19.043M74 43.848c0-7.89-6.394-14.283-14.283-14.283H15.283C7.393 29.565 1 35.957 1 43.848v20.63C1 69.738 5.26 74 10.522 74h53.956C69.736 74 74 69.737 74 64.478v-20.63zM16.87 74c0-8.765-7.107-15.87-15.87-15.87M58.13 74c0-8.765 7.105-15.87 15.87-15.87m-6.348-12.695H7.348h60.304zm-53.956 4.76v3.175-3.174z" stroke-width="2" stroke-linecap="round" stroke-linejoin="round" fill="none"/>
    </symbol>
    <symbol id="p-5" viewBox="0 0 65 72">
      <title>p-5 icon</title>
      <path d="M32.495 21.463L63.99 5.78v48.615L32.494 70.077 1 54.395V5.78l31.495 15.683zM57.695 1l-25.2 12.698L7.295 1m25.2 20.463v48.614-48.614z" stroke-width="2" stroke-linecap="round" stroke-linejoin="round" fill="none"/>
    </symbol>
    <symbol id="p-6" viewBox="0 0 77 77">
      <title>p-6 icon</title>
      <path d="M33.61 1v22.826V1zm9.78 13.043l-9.78 9.783-9.784-9.783m-3.26 57.064c0 2.702-2.19 4.89-4.892 4.89-2.702 0-4.89-2.188-4.89-4.89 0-2.7 2.188-4.89 4.89-4.89 2.702 0 4.89 2.19 4.89 4.89zm35.87 0c0 2.702-2.19 4.89-4.893 4.89-2.7 0-4.89-2.188-4.89-4.89 0-2.7 2.19-4.89 4.89-4.89 2.702 0 4.892 2.19 4.892 4.89zM76 10.783H64.587L51.543 66.217h-35.87m37.405-6.52H10.783L1 30.347h58.696l-6.618 29.35z" stroke-width="2" stroke-linecap="round" stroke-linejoin="round" fill="none"/>
    </symbol>
    <symbol id="p-7" viewBox="0 0 77 73">
      <title>p-7 icon</title>
      <path d="M25.375 52.478H49.67m9.75 12.87H45.895m-7.52-51.478h6.5m-3.25 6.434H59.5M36.75 26.74h21.125M36.75 33.173H59.5M36.75 39.61h19.5m-21.125 6.433h22.75M31.958 1H72.5M31.958 1c-3.25 0-3.333 4.826-3.333 4.826s.366 28.793-3.25 46.652H9.125C1 52.478 12.375 71.783 1 71.783h38.92c11.375 0 1.625-19.305 9.75-19.305s-1.625 12.87 9.75 12.87 9.75-59.522 9.75-59.522S69.25 1 72.5 1s3.25 9.652 3.25 9.652h-6.5" stroke-width="2" stroke-linecap="round" stroke-linejoin="round" fill="none"/>
    </symbol></svg>