<svg width="73" height="75" viewBox="0 0 73 75" xmlns="http://www.w3.org/2000/svg"><g transform="translate(1 1)" stroke="#fff" stroke-width="2" fill="none" fill-rule="evenodd"><circle cx="35.5" cy="28.5" r="28.5"/><path d="M70.567 25.318S71 26.054 71 28.5c0 5.048-1.054 9.85-2.953 14.2C62.57 55.236 50.057 64 35.5 64 15.894 64 0 48.106 0 28.5c0-2.272.42-3.182.42-3.182"/><path d="M.5 28h7" stroke-linecap="square"/><path d="M63.5 28h7" stroke-linecap="square"/><path d="M8 72.992h56C64 70.235 61.77 68 59.006 68H12.994C10.236 68 8 70.23 8 72.992z"/><path d="M29 63.454v4.53m14-4.53v4.53" stroke-linecap="square"/></g></svg>