<svg width="65" height="75" viewBox="0 0 65 75" xmlns="http://www.w3.org/2000/svg"><path d="M47.42 73.474v-16.99c9.158 0 16.58-7.307 16.58-16.32v-8.158C64 14.883 49.898 1 32.5 1 15.104 1 1 14.883 1 32.006v8.16c0 9.01 7.422 16.318 16.58 16.318v16.99h29.84zm-19.894-16.99v16.32-16.32zm9.948 0v16.32-16.32zm19.894-16.32c0 5.41-4.454 9.793-9.947 9.793-5.49 0-9.943-4.383-9.943-9.792 0-5.408 4.453-9.79 9.947-9.79 5.494 0 9.948 4.382 9.948 9.79zm-49.736 0c0 5.41 4.454 9.793 9.947 9.793 5.49 0 9.943-4.383 9.943-9.792 0-5.408-4.454-9.79-9.947-9.79-5.494 0-9.948 4.382-9.948 9.79zm6.436-26.11c0 8.926-5.427 13.056-11.41 13.056H1.363m49.57-13.055c0 8.925 5.426 13.055 11.41 13.055l1.243.05M30.842 49.958l1.658-3.264 1.658 3.264h-3.316z" stroke="#fff" stroke-width="2" stroke-linecap="round" stroke-linejoin="round" fill="none" fill-rule="evenodd"/></svg>