<svg width="78" height="72" viewBox="0 0 78 72" xmlns="http://www.w3.org/2000/svg"><path d="M12.004 65.152c-14.672-14.675-14.672-38.47 0-53.147 14.673-14.673 38.46-14.673 53.134 0 14.67 14.678 14.67 38.472 0 53.147-7.018 7.018-18.395 7.018-25.413 0l-13.86-13.865c-1.276-1.276-3.346-1.276-4.622 0-1.275 1.276-1.275 3.345 0 4.62 2.552 2.555 2.552 6.69 0 9.245-2.55 2.55-6.687 2.55-9.24 0zm43.89-39.28c-1.912 1.91-5.015 1.91-6.928 0-1.915-1.915-1.915-5.02 0-6.934 1.913-1.915 5.016-1.915 6.93 0 1.912 1.913 1.912 5.02 0 6.933zM59.13 40.89c-1.276-1.278-1.276-3.346 0-4.62 1.276-1.28 3.344-1.28 4.62 0 1.277 1.274 1.277 3.342 0 4.62-1.276 1.274-3.344 1.274-4.62 0zM47.81 59.37c-2.55-2.55-2.55-6.69 0-9.24s6.69-2.55 9.24 0c2.552 2.55 2.552 6.69 0 9.24-2.55 2.552-6.69 2.552-9.24 0zm-11.552-43.9c1.915 1.914 1.916 5.02 0 6.932-1.91 1.913-5.015 1.913-6.928 0-1.917-1.913-1.917-5.018 0-6.93 1.914-1.916 5.014-1.916 6.927 0z" stroke="#fff" stroke-width="2" stroke-linecap="round" stroke-linejoin="round" fill="none" fill-rule="evenodd"/></svg>