<svg width="75" height="75" viewBox="0 0 75 75" xmlns="http://www.w3.org/2000/svg"><path d="M21.63 35.913V16.87C21.63 8.105 28.735 1 37.5 1c8.763 0 15.87 7.105 15.87 15.87v19.043M74 43.848c0-7.89-6.394-14.283-14.283-14.283H15.283C7.393 29.565 1 35.957 1 43.848v20.63C1 69.738 5.26 74 10.522 74h53.956C69.736 74 74 69.737 74 64.478v-20.63zM16.87 74c0-8.765-7.107-15.87-15.87-15.87M58.13 74c0-8.765 7.105-15.87 15.87-15.87m-6.348-12.695H7.348h60.304zm-53.956 4.76v3.175-3.174z" stroke="#fff" stroke-width="2" stroke-linecap="round" stroke-linejoin="round" fill="none" fill-rule="evenodd"/></svg>