<svg width="77" height="73" viewBox="0 0 77 73" xmlns="http://www.w3.org/2000/svg"><path d="M25.375 52.478H49.67m9.75 12.87H45.895m-7.52-51.478h6.5m-3.25 6.434H59.5M36.75 26.74h21.125M36.75 33.173H59.5M36.75 39.61h19.5m-21.125 6.433h22.75M31.958 1H72.5M31.958 1c-3.25 0-3.333 4.826-3.333 4.826s.366 28.793-3.25 46.652H9.125C1 52.478 12.375 71.783 1 71.783h38.92c11.375 0 1.625-19.305 9.75-19.305s-1.625 12.87 9.75 12.87 9.75-59.522 9.75-59.522S69.25 1 72.5 1s3.25 9.652 3.25 9.652h-6.5" stroke="#fff" stroke-width="2" stroke-linecap="round" stroke-linejoin="round" fill="none" fill-rule="evenodd"/></svg>